<svg xmlns="http://www.w3.org/2000/svg" viewBox="0 0 64 64">
  <rect width="64" height="64" rx="14" fill="#b31217"/>
  <!-- fs, set in ET Book bold and drawn as outlines: a favicon cannot load a webfont -->
  <g transform="translate(8.942 54.211) scale(0.03036 -0.03036)" fill="#ffffff">
    <path d="M38.0 772Q40.0 800 55.0 809Q56.0 809 69.0 812.5Q82.0 816 94.5 819.5Q107.0 823 124.5 828.5Q142.0 834 155.0 839.0Q168.0 844 178.0 850.5Q188.0 857 190.0 862Q193.0 871 193.0 883Q193.0 891 194.0 912.5Q195.0 934 195.0 952Q201.0 1075 231.0 1155.0Q261.0 1235 342.0 1323Q495.0 1489 672.0 1489Q732.0 1489 803.0 1464.0Q874.0 1439 907.0 1391Q915.0 1378 915.0 1356Q915.0 1329 872.0 1262Q855.0 1235 833.0 1230.0Q811.0 1225 795.5 1233.0Q780.0 1241 760.0 1257Q722.0 1289 672.0 1310.0Q622.0 1331 582.0 1331Q528.0 1331 485.0 1299.5Q442.0 1268 422.0 1214Q395.0 1136 395.0 1038Q395.0 1031 395.0 1024L397.0 895Q397.0 868 410.0 868H549.0Q589.0 868 596.0 848L600.0 840Q604.0 822 607.5 796.5Q611.0 771 612.0 755L614.0 739Q611.0 717 601.5 709.5Q592.0 702 567.0 702L401.0 705Q397.0 705 397.0 680V276Q397.0 154 414.0 131Q425.0 116 460.0 112Q482.0 109 503.0 109Q514.0 109 526.0 110Q557.0 112 580.0 109Q621.0 107 625.0 47Q625.0 28 613.5 11.0Q602.0 -6 586.0 -6Q434.0 -1 308.0 -1.0Q182.0 -1 84.0 -6Q83.0 -6 82.0 -6Q64.0 -6 55.0 10Q45.0 28 45.0 47Q45.0 63 51.0 78Q63.0 104 106.0 104Q131.0 104 144.0 107.5Q157.0 111 168.0 119.0Q179.0 127 183.0 149.5Q187.0 172 188.5 201.0Q190.0 230 190.0 283V676V690Q190.0 693 185.5 700.5Q181.0 708 178.0 709H84.0Q48.0 709 41.0 731Q37.0 741 37.0 757Q37.0 764 38.0 772Z M935.8 633Q935.8 748 1018.8 819.5Q1101.8 891 1225.8 891Q1308.8 891 1412.8 848Q1419.8 773 1419.8 709Q1419.8 669 1416.8 633Q1414.8 622 1399.8 612.0Q1384.8 602 1367.8 602Q1353.8 602 1338.8 609.5Q1323.8 617 1322.8 629Q1308.8 703 1274.3 739.5Q1239.8 776 1195.8 776Q1157.8 776 1132.8 752.5Q1107.8 729 1107.8 694Q1107.8 671 1122.8 647.5Q1137.8 624 1164.8 602.0Q1191.8 580 1215.8 564.0Q1239.8 548 1271.8 528.5Q1303.8 509 1313.8 502Q1481.8 387 1481.8 248Q1481.8 137 1397.3 58.5Q1312.8 -20 1197.8 -20Q1126.8 -20 1072.8 2L1060.8 6Q1056.8 2 1049.8 -14Q1019.8 -26 1004.8 -26Q1001.8 -26 998.8 -25Q961.8 -17 959.8 14Q947.8 170 943.8 238Q942.8 259 962.8 268.0Q982.8 277 1010.8 274Q1034.8 266 1039.8 240Q1076.8 82 1191.8 82Q1235.8 82 1264.8 112.5Q1293.8 143 1293.8 186Q1293.8 230 1263.8 264.5Q1233.8 299 1184.8 334Q1170.8 343 1137.3 365.5Q1103.8 388 1086.8 400.5Q1069.8 413 1041.8 435.0Q1013.8 457 998.8 476.0Q983.8 495 966.8 520.0Q949.8 545 942.8 573.0Q935.8 601 935.8 633Z"/>
  </g>
</svg>
